<svg xmlns="http://www.w3.org/2000/svg" xmlns:xlink="http://www.w3.org/1999/xlink" xmlns:lucid="lucid" width="1761.53" height="4020"><g transform="translate(0 0)" lucid:page-tab-id="0_0"><g class="lucid-layer" lucid:layer-id="XGROOe.vczpw" display="block"><path d="M611.76 78c0-4.42 3.58-8 8-8h520.78c4.42 0 8 3.58 8 8v26.15c0 4.4-3.58 8-8 8H619.76c-4.42 0-8-3.6-8-8z" stroke="#000" stroke-opacity="0" stroke-width="2" fill="#fff" fill-opacity="0"/><use xlink:href="#a" transform="matrix(1,0,0,1,615.759576706394,73.99999999999999) translate(64.91555555555556 23.657777777777778)"/><use xlink:href="#b" transform="matrix(1,0,0,1,615.759576706394,73.99999999999999) translate(200.32419753086418 23.657777777777778)"/><use xlink:href="#c" transform="matrix(1,0,0,1,615.759576706394,73.99999999999999) translate(325.31679012345677 23.657777777777778)"/><use xlink:href="#d" transform="matrix(1,0,0,1,615.759576706394,73.99999999999999) translate(341.26864197530864 23.657777777777778)"/><use xlink:href="#e" transform="matrix(1,0,0,1,615.759576706394,73.99999999999999) translate(408.1353086419753 23.657777777777778)"/><path d="M619.27 110.77h521.76M619.3 110.77h-4.03M1141 110.77h4.03" stroke="#b2b2b2" stroke-width="2" fill="none"/><path d="M611.3 119.07c0-4.4 3.6-8 8-8h521.4c4.4 0 8 3.6 8 8v4c0 4.42-3.6 8-8 8H619.3c-4.4 0-8-3.58-8-8z" stroke="#000" stroke-opacity="0" stroke-width="2" fill="#fff" fill-opacity="0"/><use xlink:href="#f" transform="matrix(1,0,0,1,615.3075907693171,115.07333333321691) translate(118.25758230452678 14.917037037037037)"/><use xlink:href="#g" transform="matrix(1,0,0,1,615.3075907693171,115.07333333321691) translate(190.27764403292184 14.917037037037037)"/><use xlink:href="#h" transform="matrix(1,0,0,1,615.3075907693171,115.07333333321691) translate(267.48145061728394 14.917037037037037)"/><use xlink:href="#i" transform="matrix(1,0,0,1,615.3075907693171,115.07333333321691) translate(279.9309362139918 14.917037037037037)"/><use xlink:href="#j" transform="matrix(1,0,0,1,615.3075907693171,115.07333333321691) translate(358.87682098765436 14.917037037037037)"/><use xlink:href="#k" transform="matrix(1,0,0,1,615.3075907693171,115.07333333321691) translate(384.3706481481481 14.917037037037037)"/><path d="M80.15 165c0-2.76 2.24-5 5-5h1590c2.76 0 5 2.24 5 5v1030c0 2.76-2.24 5-5 5h-1590c-2.76 0-5-2.24-5-5z" stroke="#000" stroke-width="2" fill="#fff"/><path d="M80.15 165c0-2.76 2.24-5 5-5h1590c2.76 0 5 2.24 5 5v50c0 2.76-2.24 5-5 5h-1590c-2.76 0-5-2.24-5-5z" stroke="#000" stroke-width="2" fill="#bfbfbf"/><path d="M272.15 189c0-2.76 2.24-5 5-5h1386c2.76 0 5 2.24 5 5v14c0 2.76-2.24 5-5 5h-1386c-2.76 0-5-2.24-5-5z" stroke="#000" stroke-width="2" fill="#fff"/><path d="M104.15 184l-12 12 12 12m-12-12h24M152.15 184l12 12-12 12m-12-12h24M212.15 196c-1.4-6.23-2.8-8.15-4.95-9.7-5.36-3.9-12.86-2.72-16.76 2.65-3.9 5.36-2.7 12.86 2.66 16.76 5.36 3.9 12.86 2.72 16.76-2.65" stroke="#000" stroke-width="6" fill="none"/><path d="M215.27 184v12h-12z" stroke="#000" stroke-width="1.5"/><path d="M236.15 196l12-12 12 12h-2.4v12h-6v-12h-7.2v12h-6v-12z" stroke="#000"/><g><use xlink:href="#l" transform="matrix(1,0,0,1,100.15066197898705,160) translate(699.025 15.6)"/><use xlink:href="#m" transform="matrix(1,0,0,1,100.15066197898705,160) translate(784.975 15.6)"/></g><g><use xlink:href="#n" transform="matrix(1,0,0,1,278.15066197898705,184) translate(0 15.6)"/></g><path d="M1435 940c0-2.76 2.24-5 5-5h150c2.76 0 5 2.24 5 5v30c0 2.76-2.24 5-5 5h-150c-2.76 0-5-2.24-5-5z" stroke="#000" stroke-width="2" fill="#fff"/><g><use xlink:href="#o" transform="matrix(1,0,0,1,1445,939) translate(0 19.6)"/><use xlink:href="#p" transform="matrix(1,0,0,1,1445,939) translate(39.6 19.6)"/></g><path d="M1592 935c-6.63 0-12 5.37-12 12v16c0 6.63 5.37 12 12 12h36c6.63 0 12-5.37 12-12v-16c0-6.63-5.37-12-12-12z" stroke="#000" stroke-width="2" fill="#fff"/><g><use xlink:href="#q" transform="matrix(1,0,0,1,1590,939) translate(7 19.6)"/></g></g><g class="lucid-layer" lucid:layer-id="6GROoBHSd0as" display="block"><path d="M105.5 1150c-5.8 0-10.5 4.7-10.5 10.5v14c0 5.8 4.7 10.5 10.5 10.5h1549c5.8 0 10.5-4.7 10.5-10.5v-14c0-5.8-4.7-10.5-10.5-10.5z" stroke="#000" stroke-width="2" fill="#fff"/><use xlink:href="#r" transform="matrix(1,0,0,1,105,1153.5) translate(749 17.6)"/><path d="M105.5 1105c-5.8 0-10.5 4.7-10.5 10.5v14c0 5.8 4.7 10.5 10.5 10.5h1549c5.8 0 10.5-4.7 10.5-10.5v-14c0-5.8-4.7-10.5-10.5-10.5z" stroke="#000" stroke-width="2" fill="#fff"/><use xlink:href="#r" transform="matrix(1,0,0,1,105,1108.5) translate(749 17.6)"/><path d="M125.15 990c-16.57 0-30 13.43-30 30v40c0 16.57 13.43 30 30 30H850c16.57 0 30-13.43 30-30v-40c0-16.57-13.43-30-30-30z" stroke="#000" stroke-width="2" fill="#fff"/><use xlink:href="#s" transform="matrix(1,0,0,1,105.15066197898705,1000) translate(368.05 43.6)"/><path d="M80.15 225c0-2.76 2.24-5 5-5H1675c2.76 0 5 2.24 5 5v50c0 2.76-2.24 5-5 5H85.15c-2.76 0-5-2.24-5-5z" stroke="#000" stroke-width="2" fill="#fff"/><use xlink:href="#t" transform="matrix(1,0,0,1,85.15066197898705,225) translate(770 30.025)"/><use xlink:href="#u" transform="matrix(1,0,0,1,85.15066197898705,225) translate(805 30.025)"/><path d="M910 990c-16.57 0-30 13.43-30 30v40c0 16.57 13.43 30 30 30h725.15c16.57 0 30-13.43 30-30v-40c0-16.57-13.43-30-30-30z" stroke="#000" stroke-width="2" fill="#fff"/><g><use xlink:href="#v" transform="matrix(1,0,0,1,890,1000) translate(353.25 43.6)"/></g></g><g class="lucid-layer" lucid:layer-id=".LRO8zKSbwAL" display="block"><path d="M115 310c0-2.76 2.24-5 5-5h145c2.76 0 5 2.24 5 5v202.63c0 2.77-2.24 5-5 5H120c-2.76 0-5-2.23-5-5z" stroke="#000" stroke-width="2" fill="#fff"/><path d="M115 305l155 212.63M270 305L115 517.63" stroke="#000" stroke-width="2" fill="none"/><path d="M190 310c0-2.76 2.24-5 5-5h151.46c2.76 0 5 2.24 5 5v202.63c0 2.77-2.24 5-5 5H195c-2.76 0-5-2.23-5-5z" stroke="#000" stroke-width="2" fill="#333"/><path d="M190 305l161.46 212.63m0-212.63L190 517.63" stroke="#000" stroke-width="2" fill="none"/><path d="M95.15 456.38c0-2.76 2.24-5 5-5H375c2.76 0 5 2.24 5 5v70c0 2.77-2.24 5-5 5H100.15c-2.76 0-5-2.23-5-5z" stroke="#000" stroke-width="2" fill="#fff"/><use xlink:href="#w" transform="matrix(1,0,0,1,100.15066197898705,456.3835831868573) translate(78.425 38.4625)"/><use xlink:href="#x" transform="matrix(1,0,0,1,100.15066197898705,456.3835831868573) translate(148.675 38.4625)"/></g><g class="lucid-layer" lucid:layer-id="iMROpvoOA_sQ" display="block"><path d="M95.15 820c0-2.76 2.24-5 5-5H555c2.76 0 5 2.24 5 5v150c0 2.76-2.24 5-5 5H100.15c-2.76 0-5-2.24-5-5z" stroke="#000" stroke-width="2" fill="#fff"/><path d="M170 620c0-2.76 2.24-5 5-5h240c2.76 0 5 2.24 5 5v332.63c0 2.77-2.24 5-5 5H175c-2.76 0-5-2.23-5-5z" stroke="#000" stroke-width="2" fill="#fff"/><path d="M170 615l250 342.63M420 615L170 957.63" stroke="#000" stroke-width="2" fill="none"/><path d="M290 620c0-2.76 2.24-5 5-5h240c2.76 0 5 2.24 5 5v332.63c0 2.77-2.24 5-5 5H295c-2.76 0-5-2.23-5-5z" stroke="#000" stroke-width="2" fill="#fff"/><path d="M290 615l250 342.63M540 615L290 957.63" stroke="#000" stroke-width="2" fill="none"/><path d="M100 1015c-2.76 0-5-2.24-5-5V780c0-2.76 2.24-5 5-5h50c2.76 0 5 2.24 5 5v230c0 2.76-2.24 5-5 5z" stroke="#000" stroke-opacity="0" stroke-width="2" fill="#fff" fill-opacity="0"/><use xlink:href="#y" transform="matrix(6.123233995736766e-17,-1,1,6.123233995736766e-17,100,1010) translate(70.39999999999999 30.025)"/><use xlink:href="#z" transform="matrix(6.123233995736766e-17,-1,1,6.123233995736766e-17,100,1010) translate(111.69999999999999 30.025)"/></g><g class="lucid-layer" lucid:layer-id="mCnVu7JfshYN" display="block"><path d="M612.37 1356.75c0-4.42 3.6-8 8-8h520.8c4.4 0 8 3.58 8 8v26.15c0 4.4-3.6 8-8 8h-520.8c-4.4 0-8-3.6-8-8z" stroke="#000" stroke-opacity="0" stroke-width="2" fill="#fff" fill-opacity="0"/><use xlink:href="#a" transform="matrix(1,0,0,1,616.3747507070309,1352.75) translate(53.98962962962963 23.657777777777778)"/><use xlink:href="#b" transform="matrix(1,0,0,1,616.3747507070309,1352.75) translate(189.39827160493826 23.657777777777778)"/><use xlink:href="#c" transform="matrix(1,0,0,1,616.3747507070309,1352.75) translate(314.39086419753085 23.657777777777778)"/><use xlink:href="#A" transform="matrix(1,0,0,1,616.3747507070309,1352.75) translate(330.3427160493827 23.657777777777778)"/><use xlink:href="#e" transform="matrix(1,0,0,1,616.3747507070309,1352.75) translate(419.06123456790124 23.657777777777778)"/><path d="M619.9 1389.52h521.74M619.9 1389.52h-4M1141.62 1389.52h4.02" stroke="#b2b2b2" stroke-width="2" fill="none"/><path d="M611.92 1397.82c0-4.4 3.58-8 8-8h521.4c4.4 0 8 3.6 8 8v4c0 4.42-3.6 8-8 8H619.9c-4.42 0-8-3.58-8-8z" stroke="#000" stroke-opacity="0" stroke-width="2" fill="#fff" fill-opacity="0"/><use xlink:href="#f" transform="matrix(1,0,0,1,615.922764769954,1393.8233333332169) translate(118.25758230452678 14.917037037037037)"/><use xlink:href="#g" transform="matrix(1,0,0,1,615.922764769954,1393.8233333332169) translate(190.27764403292184 14.917037037037037)"/><use xlink:href="#B" transform="matrix(1,0,0,1,615.922764769954,1393.8233333332169) translate(267.48145061728394 14.917037037037037)"/><use xlink:href="#i" transform="matrix(1,0,0,1,615.922764769954,1393.8233333332169) translate(279.9309362139918 14.917037037037037)"/><use xlink:href="#j" transform="matrix(1,0,0,1,615.922764769954,1393.8233333332169) translate(358.87682098765436 14.917037037037037)"/><use xlink:href="#k" transform="matrix(1,0,0,1,615.922764769954,1393.8233333332169) translate(384.3706481481481 14.917037037037037)"/><path d="M80.77 1443.75c0-2.76 2.23-5 5-5h1590c2.76 0 5 2.24 5 5v1030c0 2.76-2.24 5-5 5h-1590c-2.77 0-5-2.24-5-5z" stroke="#000" stroke-width="2" fill="#fff"/><path d="M80.77 1443.75c0-2.76 2.23-5 5-5h1590c2.76 0 5 2.24 5 5v50c0 2.76-2.24 5-5 5h-1590c-2.77 0-5-2.24-5-5z" stroke="#000" stroke-width="2" fill="#bfbfbf"/><path d="M272.77 1467.75c0-2.76 2.23-5 5-5h1386c2.76 0 5 2.24 5 5v14c0 2.76-2.24 5-5 5h-1386c-2.77 0-5-2.24-5-5z" stroke="#000" stroke-width="2" fill="#fff"/><path d="M104.77 1462.75l-12 12 12 12m-12-12h24M152.77 1462.75l12 12-12 12m-12-12h24M212.77 1474.75c-1.4-6.23-2.8-8.15-4.95-9.7-5.36-3.9-12.87-2.72-16.76 2.65-3.9 5.36-2.7 12.86 2.65 16.76 5.37 3.9 12.88 2.7 16.77-2.66" stroke="#000" stroke-width="6" fill="none"/><path d="M215.9 1462.75v12h-12z" stroke="#000" stroke-width="1.5"/><path d="M236.77 1474.75l12-12 12 12h-2.4v12h-6v-12h-7.2v12h-6v-12z" stroke="#000"/><g><use xlink:href="#C" transform="matrix(1,0,0,1,100.76583597962394,1438.75) translate(699.025 15.6)"/><use xlink:href="#D" transform="matrix(1,0,0,1,100.76583597962394,1438.75) translate(784.975 15.6)"/></g><g><use xlink:href="#E" transform="matrix(1,0,0,1,278.76583597962394,1462.75) translate(0 15.6)"/></g></g><g class="lucid-layer" lucid:layer-id="mCnV6CqmpMSI" display="block"><path d="M921.42 1625c-5.8 0-10.5 4.7-10.5 10.5v14c0 5.8 4.7 10.5 10.5 10.5h733.85c5.8 0 10.5-4.7 10.5-10.5v-14c0-5.8-4.7-10.5-10.5-10.5z" stroke="#000" stroke-width="2" fill="#fff"/><use xlink:href="#F" transform="matrix(1,0,0,1,920.916497958611,1628.5) translate(105.07 17.6)"/><use xlink:href="#G" transform="matrix(1,0,0,1,920.916497958611,1628.5) translate(177.07999999999998 17.6)"/><use xlink:href="#H" transform="matrix(1,0,0,1,920.916497958611,1628.5) translate(213.07999999999998 17.6)"/><use xlink:href="#G" transform="matrix(1,0,0,1,920.916497958611,1628.5) translate(285.08 17.6)"/><use xlink:href="#G" transform="matrix(1,0,0,1,920.916497958611,1628.5) translate(321.08 17.6)"/><use xlink:href="#G" transform="matrix(1,0,0,1,920.916497958611,1628.5) translate(357.08 17.6)"/><use xlink:href="#G" transform="matrix(1,0,0,1,920.916497958611,1628.5) translate(393.08 17.6)"/><use xlink:href="#G" transform="matrix(1,0,0,1,920.916497958611,1628.5) translate(429.08 17.6)"/><use xlink:href="#G" transform="matrix(1,0,0,1,920.916497958611,1628.5) translate(465.08 17.6)"/><use xlink:href="#G" transform="matrix(1,0,0,1,920.916497958611,1628.5) translate(501.08 17.6)"/><use xlink:href="#G" transform="matrix(1,0,0,1,920.916497958611,1628.5) translate(537.0799999999999 17.6)"/><use xlink:href="#I" transform="matrix(1,0,0,1,920.916497958611,1628.5) translate(573.0799999999999 17.6)"/><path d="M106.42 1570c-5.8 0-10.5 4.7-10.5 10.5v14c0 5.8 4.7 10.5 10.5 10.5h749c5.8 0 10.5-4.7 10.5-10.5v-14c0-5.8-4.7-10.5-10.5-10.5z" stroke="#000" stroke-width="2" fill="#fff"/><use xlink:href="#J" transform="matrix(1,0,0,1,105.91649795861099,1573.5) translate(352.575 17.6)"/><path d="M80 2423.75c0-2.76 2.24-5 5-5h1589.85c2.76 0 5 2.24 5 5v50c0 2.76-2.24 5-5 5H85c-2.76 0-5-2.24-5-5z" stroke="#000" stroke-width="2" fill="#fff"/><g><use xlink:href="#K" transform="matrix(1,0,0,1,85,2423.75) translate(770 30.025)"/><use xlink:href="#L" transform="matrix(1,0,0,1,85,2423.75) translate(805 30.025)"/></g><path d="M113.77 1680c-9.95 0-18 8.06-18 18v24c0 9.94 8.05 18 18 18h734.76c9.94 0 18-8.06 18-18v-24c0-9.94-8.06-18-18-18z" stroke="#000" stroke-width="2" fill="#c1e4f7"/><g><use xlink:href="#M" transform="matrix(1,0,0,1,105.76583597962394,1686) translate(345.025 27.6)"/><use xlink:href="#N" transform="matrix(1,0,0,1,105.76583597962394,1686) translate(388.025 27.6)"/></g><path d="M107.03 1625c-5.8 0-10.5 4.7-10.5 10.5v14c0 5.8 4.7 10.5 10.5 10.5h749c5.8 0 10.5-4.7 10.5-10.5v-14c0-5.8-4.7-10.5-10.5-10.5z" stroke="#000" stroke-width="2" fill="#fff"/><g><use xlink:href="#O" transform="matrix(1,0,0,1,106.53167195924789,1628.5) translate(335.55 17.6)"/></g><path d="M921.42 1680c-5.8 0-10.5 4.7-10.5 10.5v14c0 5.8 4.7 10.5 10.5 10.5h733.85c5.8 0 10.5-4.7 10.5-10.5v-14c0-5.8-4.7-10.5-10.5-10.5z" stroke="#000" stroke-width="2" fill="#fff"/><g><use xlink:href="#F" transform="matrix(1,0,0,1,920.916497958611,1683.5) translate(105.07 17.6)"/><use xlink:href="#G" transform="matrix(1,0,0,1,920.916497958611,1683.5) translate(177.07999999999998 17.6)"/><use xlink:href="#H" transform="matrix(1,0,0,1,920.916497958611,1683.5) translate(213.07999999999998 17.6)"/><use xlink:href="#G" transform="matrix(1,0,0,1,920.916497958611,1683.5) translate(285.08 17.6)"/><use xlink:href="#G" transform="matrix(1,0,0,1,920.916497958611,1683.5) translate(321.08 17.6)"/><use xlink:href="#G" transform="matrix(1,0,0,1,920.916497958611,1683.5) translate(357.08 17.6)"/><use xlink:href="#G" transform="matrix(1,0,0,1,920.916497958611,1683.5) translate(393.08 17.6)"/><use xlink:href="#G" transform="matrix(1,0,0,1,920.916497958611,1683.5) translate(429.08 17.6)"/><use xlink:href="#G" transform="matrix(1,0,0,1,920.916497958611,1683.5) translate(465.08 17.6)"/><use xlink:href="#G" transform="matrix(1,0,0,1,920.916497958611,1683.5) translate(501.08 17.6)"/><use xlink:href="#G" transform="matrix(1,0,0,1,920.916497958611,1683.5) translate(537.0799999999999 17.6)"/><use xlink:href="#I" transform="matrix(1,0,0,1,920.916497958611,1683.5) translate(573.0799999999999 17.6)"/></g><path d="M922.18 1735c-5.8 0-10.5 4.7-10.5 10.5v14c0 5.8 4.7 10.5 10.5 10.5h733.85c5.8 0 10.5-4.7 10.5-10.5v-14c0-5.8-4.7-10.5-10.5-10.5z" stroke="#000" stroke-width="2" fill="#fff"/><g><use xlink:href="#F" transform="matrix(1,0,0,1,921.6823339382349,1738.5) translate(105.07 17.6)"/><use xlink:href="#G" transform="matrix(1,0,0,1,921.6823339382349,1738.5) translate(177.07999999999998 17.6)"/><use xlink:href="#H" transform="matrix(1,0,0,1,921.6823339382349,1738.5) translate(213.07999999999998 17.6)"/><use xlink:href="#G" transform="matrix(1,0,0,1,921.6823339382349,1738.5) translate(285.08 17.6)"/><use xlink:href="#G" transform="matrix(1,0,0,1,921.6823339382349,1738.5) translate(321.08 17.6)"/><use xlink:href="#G" transform="matrix(1,0,0,1,921.6823339382349,1738.5) translate(357.08 17.6)"/><use xlink:href="#G" transform="matrix(1,0,0,1,921.6823339382349,1738.5) translate(393.08 17.6)"/><use xlink:href="#G" transform="matrix(1,0,0,1,921.6823339382349,1738.5) translate(429.08 17.6)"/><use xlink:href="#G" transform="matrix(1,0,0,1,921.6823339382349,1738.5) translate(465.08 17.6)"/><use xlink:href="#G" transform="matrix(1,0,0,1,921.6823339382349,1738.5) translate(501.08 17.6)"/><use xlink:href="#G" transform="matrix(1,0,0,1,921.6823339382349,1738.5) translate(537.0799999999999 17.6)"/><use xlink:href="#I" transform="matrix(1,0,0,1,921.6823339382349,1738.5) translate(573.0799999999999 17.6)"/></g><path d="M1140.92 1570c0-2.76 2.24-5 5-5h230c2.76 0 5 2.24 5 5v50c0 2.76-2.24 5-5 5h-230c-2.76 0-5-2.24-5-5z" stroke="#000" stroke-opacity="0" stroke-width="2" fill="#fff" fill-opacity="0"/><g><use xlink:href="#P" transform="matrix(1,0,0,1,1145.916497958611,1570) translate(11.592592592592581 30.708333333333336)"/></g></g><g class="lucid-layer" lucid:layer-id="6HnVxvWJkwEA" display="block"><path d="M613.14 2636.75c0-4.42 3.58-8 8-8h520.78c4.42 0 8 3.58 8 8v26.15c0 4.4-3.58 8-8 8H621.14c-4.42 0-8-3.6-8-8z" stroke="#000" stroke-opacity="0" stroke-width="2" fill="#fff" fill-opacity="0"/><use xlink:href="#a" transform="matrix(1,0,0,1,617.1405866866548,2632.75) translate(53.98962962962963 23.657777777777778)"/><use xlink:href="#b" transform="matrix(1,0,0,1,617.1405866866548,2632.75) translate(189.39827160493826 23.657777777777778)"/><use xlink:href="#c" transform="matrix(1,0,0,1,617.1405866866548,2632.75) translate(314.39086419753085 23.657777777777778)"/><use xlink:href="#A" transform="matrix(1,0,0,1,617.1405866866548,2632.75) translate(330.3427160493827 23.657777777777778)"/><use xlink:href="#e" transform="matrix(1,0,0,1,617.1405866866548,2632.75) translate(419.06123456790124 23.657777777777778)"/><path d="M620.65 2669.52h521.76M620.68 2669.52h-4.03M1142.38 2669.52h4.03" stroke="#b2b2b2" stroke-width="2" fill="none"/><path d="M612.7 2677.82c0-4.4 3.57-8 8-8h521.37c4.42 0 8 3.6 8 8v4c0 4.42-3.58 8-8 8H620.7c-4.43 0-8-3.58-8-8z" stroke="#000" stroke-opacity="0" stroke-width="2" fill="#fff" fill-opacity="0"/><use xlink:href="#f" transform="matrix(1,0,0,1,616.688600749578,2673.823333333217) translate(118.25758230452678 14.917037037037037)"/><use xlink:href="#g" transform="matrix(1,0,0,1,616.688600749578,2673.823333333217) translate(190.27764403292184 14.917037037037037)"/><use xlink:href="#B" transform="matrix(1,0,0,1,616.688600749578,2673.823333333217) translate(267.48145061728394 14.917037037037037)"/><use xlink:href="#i" transform="matrix(1,0,0,1,616.688600749578,2673.823333333217) translate(279.9309362139918 14.917037037037037)"/><use xlink:href="#j" transform="matrix(1,0,0,1,616.688600749578,2673.823333333217) translate(358.87682098765436 14.917037037037037)"/><use xlink:href="#k" transform="matrix(1,0,0,1,616.688600749578,2673.823333333217) translate(384.3706481481481 14.917037037037037)"/><path d="M81.53 2723.75c0-2.76 2.24-5 5-5h1590c2.76 0 5 2.24 5 5v1030c0 2.76-2.24 5-5 5h-1590c-2.76 0-5-2.24-5-5z" stroke="#000" stroke-width="2" fill="#fff"/><path d="M81.53 2723.75c0-2.76 2.24-5 5-5h1590c2.76 0 5 2.24 5 5v50c0 2.76-2.24 5-5 5h-1590c-2.76 0-5-2.24-5-5z" stroke="#000" stroke-width="2" fill="#bfbfbf"/><path d="M273.53 2747.75c0-2.76 2.24-5 5-5h1386c2.76 0 5 2.24 5 5v14c0 2.76-2.24 5-5 5h-1386c-2.76 0-5-2.24-5-5z" stroke="#000" stroke-width="2" fill="#fff"/><path d="M105.53 2742.75l-12 12 12 12m-12-12h24M153.53 2742.75l12 12-12 12m-12-12h24M213.53 2754.75c-1.4-6.23-2.8-8.15-4.94-9.7-5.38-3.9-12.88-2.72-16.78 2.65-3.9 5.36-2.7 12.86 2.66 16.76 5.36 3.9 12.86 2.7 16.76-2.66" stroke="#000" stroke-width="6" fill="none"/><path d="M216.65 2742.75v12h-12z" stroke="#000" stroke-width="1.5"/><path d="M237.53 2754.75l12-12 12 12h-2.4v12h-6v-12h-7.2v12h-6v-12z" stroke="#000"/><g><use xlink:href="#C" transform="matrix(1,0,0,1,101.53167195924789,2718.75) translate(699.025 15.6)"/><use xlink:href="#D" transform="matrix(1,0,0,1,101.53167195924789,2718.75) translate(784.975 15.6)"/></g><g><use xlink:href="#E" transform="matrix(1,0,0,1,279.5316719592479,2742.75) translate(0 15.6)"/></g></g><g class="lucid-layer" lucid:layer-id="6HnVK9uKxRN-" display="block"><path d="M921.27 2905c-5.8 0-10.5 4.7-10.5 10.5v14c0 5.8 4.7 10.5 10.5 10.5h733.85c5.8 0 10.5-4.7 10.5-10.5v-14c0-5.8-4.7-10.5-10.5-10.5z" stroke="#000" stroke-width="2" fill="#fff"/><use xlink:href="#F" transform="matrix(1,0,0,1,920.765835979624,2908.5) translate(105.07 17.6)"/><use xlink:href="#G" transform="matrix(1,0,0,1,920.765835979624,2908.5) translate(177.07999999999998 17.6)"/><use xlink:href="#H" transform="matrix(1,0,0,1,920.765835979624,2908.5) translate(213.07999999999998 17.6)"/><use xlink:href="#G" transform="matrix(1,0,0,1,920.765835979624,2908.5) translate(285.08 17.6)"/><use xlink:href="#G" transform="matrix(1,0,0,1,920.765835979624,2908.5) translate(321.08 17.6)"/><use xlink:href="#G" transform="matrix(1,0,0,1,920.765835979624,2908.5) translate(357.08 17.6)"/><use xlink:href="#G" transform="matrix(1,0,0,1,920.765835979624,2908.5) translate(393.08 17.6)"/><use xlink:href="#G" transform="matrix(1,0,0,1,920.765835979624,2908.5) translate(429.08 17.6)"/><use xlink:href="#G" transform="matrix(1,0,0,1,920.765835979624,2908.5) translate(465.08 17.6)"/><use xlink:href="#G" transform="matrix(1,0,0,1,920.765835979624,2908.5) translate(501.08 17.6)"/><use xlink:href="#G" transform="matrix(1,0,0,1,920.765835979624,2908.5) translate(537.0799999999999 17.6)"/><use xlink:href="#I" transform="matrix(1,0,0,1,920.765835979624,2908.5) translate(573.0799999999999 17.6)"/><path d="M80 3703.75c0-2.76 2.24-5 5-5h1589.85c2.76 0 5 2.24 5 5v50c0 2.76-2.24 5-5 5H85c-2.76 0-5-2.24-5-5z" stroke="#000" stroke-width="2" fill="#fff"/><use xlink:href="#Q" transform="matrix(1,0,0,1,85,3703.75) translate(769.575 30.025)"/><path d="M921.27 2960c-5.8 0-10.5 4.7-10.5 10.5v14c0 5.8 4.7 10.5 10.5 10.5h733.85c5.8 0 10.5-4.7 10.5-10.5v-14c0-5.8-4.7-10.5-10.5-10.5z" stroke="#000" stroke-width="2" fill="#fff"/><use xlink:href="#F" transform="matrix(1,0,0,1,920.765835979624,2963.5) translate(105.07 17.6)"/><use xlink:href="#G" transform="matrix(1,0,0,1,920.765835979624,2963.5) translate(177.07999999999998 17.6)"/><use xlink:href="#H" transform="matrix(1,0,0,1,920.765835979624,2963.5) translate(213.07999999999998 17.6)"/><use xlink:href="#G" transform="matrix(1,0,0,1,920.765835979624,2963.5) translate(285.08 17.6)"/><use xlink:href="#G" transform="matrix(1,0,0,1,920.765835979624,2963.5) translate(321.08 17.6)"/><use xlink:href="#G" transform="matrix(1,0,0,1,920.765835979624,2963.5) translate(357.08 17.6)"/><use xlink:href="#G" transform="matrix(1,0,0,1,920.765835979624,2963.5) translate(393.08 17.6)"/><use xlink:href="#G" transform="matrix(1,0,0,1,920.765835979624,2963.5) translate(429.08 17.6)"/><use xlink:href="#G" transform="matrix(1,0,0,1,920.765835979624,2963.5) translate(465.08 17.6)"/><use xlink:href="#G" transform="matrix(1,0,0,1,920.765835979624,2963.5) translate(501.08 17.6)"/><use xlink:href="#G" transform="matrix(1,0,0,1,920.765835979624,2963.5) translate(537.0799999999999 17.6)"/><use xlink:href="#I" transform="matrix(1,0,0,1,920.765835979624,2963.5) translate(573.0799999999999 17.6)"/><path d="M922.03 3015c-5.8 0-10.5 4.7-10.5 10.5v14c0 5.8 4.7 10.5 10.5 10.5h733.85c5.8 0 10.5-4.7 10.5-10.5v-14c0-5.8-4.7-10.5-10.5-10.5z" stroke="#000" stroke-width="2" fill="#fff"/><g><use xlink:href="#F" transform="matrix(1,0,0,1,921.5316719592479,3018.5) translate(105.07 17.6)"/><use xlink:href="#G" transform="matrix(1,0,0,1,921.5316719592479,3018.5) translate(177.07999999999998 17.6)"/><use xlink:href="#H" transform="matrix(1,0,0,1,921.5316719592479,3018.5) translate(213.07999999999998 17.6)"/><use xlink:href="#G" transform="matrix(1,0,0,1,921.5316719592479,3018.5) translate(285.08 17.6)"/><use xlink:href="#G" transform="matrix(1,0,0,1,921.5316719592479,3018.5) translate(321.08 17.6)"/><use xlink:href="#G" transform="matrix(1,0,0,1,921.5316719592479,3018.5) translate(357.08 17.6)"/><use xlink:href="#G" transform="matrix(1,0,0,1,921.5316719592479,3018.5) translate(393.08 17.6)"/><use xlink:href="#G" transform="matrix(1,0,0,1,921.5316719592479,3018.5) translate(429.08 17.6)"/><use xlink:href="#G" transform="matrix(1,0,0,1,921.5316719592479,3018.5) translate(465.08 17.6)"/><use xlink:href="#G" transform="matrix(1,0,0,1,921.5316719592479,3018.5) translate(501.08 17.6)"/><use xlink:href="#G" transform="matrix(1,0,0,1,921.5316719592479,3018.5) translate(537.0799999999999 17.6)"/><use xlink:href="#I" transform="matrix(1,0,0,1,921.5316719592479,3018.5) translate(573.0799999999999 17.6)"/></g><path d="M1140.77 2850c0-2.76 2.23-5 5-5h230c2.76 0 5 2.24 5 5v50c0 2.76-2.24 5-5 5h-230c-2.77 0-5-2.24-5-5z" stroke="#000" stroke-opacity="0" stroke-width="2" fill="#fff" fill-opacity="0"/><g><use xlink:href="#P" transform="matrix(1,0,0,1,1145.765835979624,2850) translate(11.592592592592581 30.708333333333336)"/></g><path d="M360 2865c0-2.76 2.24-5 5-5h230c2.76 0 5 2.24 5 5v50c0 2.76-2.24 5-5 5H365c-2.76 0-5-2.24-5-5z" stroke="#000" stroke-opacity="0" stroke-width="2" fill="#fff" fill-opacity="0"/><g><use xlink:href="#R" transform="matrix(1,0,0,1,365,2865) translate(75.85185185185185 30.708333333333336)"/></g><path d="M367.58 2965c0-2.76 2.23-5 5-5h230c2.76 0 5 2.24 5 5v50c0 2.76-2.24 5-5 5h-230c-2.77 0-5-2.24-5-5z" stroke="#000" stroke-opacity="0" stroke-width="2" fill="#fff" fill-opacity="0"/><g><use xlink:href="#S" transform="matrix(1,0,0,1,372.5753309894353,2965) translate(70.6 30.025)"/><use xlink:href="#T" transform="matrix(1,0,0,1,372.5753309894353,2965) translate(99.55 30.025)"/></g><path d="M113.3 3025c-5.8 0-10.5 4.7-10.5 10.5v14c0 5.8 4.7 10.5 10.5 10.5h733.86c5.8 0 10.5-4.7 10.5-10.5v-14c0-5.8-4.7-10.5-10.5-10.5z" stroke="#000" stroke-width="2" fill="#fff"/><g><use xlink:href="#F" transform="matrix(1,0,0,1,112.80758700031845,3028.5) translate(105.07 17.6)"/><use xlink:href="#G" transform="matrix(1,0,0,1,112.80758700031845,3028.5) translate(177.07999999999998 17.6)"/><use xlink:href="#H" transform="matrix(1,0,0,1,112.80758700031845,3028.5) translate(213.07999999999998 17.6)"/><use xlink:href="#G" transform="matrix(1,0,0,1,112.80758700031845,3028.5) translate(285.08 17.6)"/><use xlink:href="#G" transform="matrix(1,0,0,1,112.80758700031845,3028.5) translate(321.08 17.6)"/><use xlink:href="#G" transform="matrix(1,0,0,1,112.80758700031845,3028.5) translate(357.08 17.6)"/><use xlink:href="#G" transform="matrix(1,0,0,1,112.80758700031845,3028.5) translate(393.08 17.6)"/><use xlink:href="#G" transform="matrix(1,0,0,1,112.80758700031845,3028.5) translate(429.08 17.6)"/><use xlink:href="#G" transform="matrix(1,0,0,1,112.80758700031845,3028.5) translate(465.08 17.6)"/><use xlink:href="#G" transform="matrix(1,0,0,1,112.80758700031845,3028.5) translate(501.08 17.6)"/><use xlink:href="#G" transform="matrix(1,0,0,1,112.80758700031845,3028.5) translate(537.0799999999999 17.6)"/><use xlink:href="#I" transform="matrix(1,0,0,1,112.80758700031845,3028.5) translate(573.0799999999999 17.6)"/></g><path d="M113.3 3085c-5.8 0-10.5 4.7-10.5 10.5v14c0 5.8 4.7 10.5 10.5 10.5h733.86c5.8 0 10.5-4.7 10.5-10.5v-14c0-5.8-4.7-10.5-10.5-10.5z" stroke="#000" stroke-width="2" fill="#fff"/><g><use xlink:href="#F" transform="matrix(1,0,0,1,112.80758700031845,3088.5) translate(105.07 17.6)"/><use xlink:href="#G" transform="matrix(1,0,0,1,112.80758700031845,3088.5) translate(177.07999999999998 17.6)"/><use xlink:href="#H" transform="matrix(1,0,0,1,112.80758700031845,3088.5) translate(213.07999999999998 17.6)"/><use xlink:href="#G" transform="matrix(1,0,0,1,112.80758700031845,3088.5) translate(285.08 17.6)"/><use xlink:href="#G" transform="matrix(1,0,0,1,112.80758700031845,3088.5) translate(321.08 17.6)"/><use xlink:href="#G" transform="matrix(1,0,0,1,112.80758700031845,3088.5) translate(357.08 17.6)"/><use xlink:href="#G" transform="matrix(1,0,0,1,112.80758700031845,3088.5) translate(393.08 17.6)"/><use xlink:href="#G" transform="matrix(1,0,0,1,112.80758700031845,3088.5) translate(429.08 17.6)"/><use xlink:href="#G" transform="matrix(1,0,0,1,112.80758700031845,3088.5) translate(465.08 17.6)"/><use xlink:href="#G" transform="matrix(1,0,0,1,112.80758700031845,3088.5) translate(501.08 17.6)"/><use xlink:href="#G" transform="matrix(1,0,0,1,112.80758700031845,3088.5) translate(537.0799999999999 17.6)"/><use xlink:href="#I" transform="matrix(1,0,0,1,112.80758700031845,3088.5) translate(573.0799999999999 17.6)"/></g><path d="M680 2850c0-2.76 2.24-5 5-5h230c2.76 0 5 2.24 5 5v50c0 2.76-2.24 5-5 5H685c-2.76 0-5-2.24-5-5z" stroke="#000" stroke-opacity="0" stroke-width="2" fill="#fff" fill-opacity="0"/><g><use xlink:href="#K" transform="matrix(1,0,0,1,685,2850) translate(83 30.025)"/><use xlink:href="#U" transform="matrix(1,0,0,1,685,2850) translate(118 30.025)"/></g><path d="M680 2885c0-2.76 2.24-5 5-5h230c2.76 0 5 2.24 5 5v50c0 2.76-2.24 5-5 5H685c-2.76 0-5-2.24-5-5z" stroke="#000" stroke-opacity="0" stroke-width="2" fill="#fff" fill-opacity="0"/><g><use xlink:href="#V" transform="matrix(1,0,0,1,685,2885) translate(89.05 30.025)"/></g></g><defs><path fill="#b2b2b2" d="M182-130c37 4 62 22 62 59C244 23 116-4 24 0v-248c84 5 203-23 205 63 0 31-19 50-47 55zM76-148c40-3 101 13 101-30 0-44-60-28-101-31v61zm0 110c48-3 116 14 116-37 0-48-69-32-116-35v72" id="W"/><path fill="#b2b2b2" d="M25 0v-261h50V0H25" id="X"/><path fill="#b2b2b2" d="M133-34C117-15 103 5 69 4 32 3 11-16 11-54c-1-60 55-63 116-61 1-26-3-47-28-47-18 1-26 9-28 27l-52-2c7-38 36-58 82-57s74 22 75 68l1 82c-1 14 12 18 25 15v27c-30 8-71 5-69-32zm-48 3c29 0 43-24 42-57-32 0-66-3-65 30 0 17 8 27 23 27" id="Y"/><path fill="#b2b2b2" d="M190-63c-7 42-38 67-86 67-59 0-84-38-90-98-12-110 154-137 174-36l-49 2c-2-19-15-32-35-32-30 0-35 28-38 64-6 74 65 87 74 30" id="Z"/><path fill="#b2b2b2" d="M147 0L96-86 75-71V0H25v-261h50v150l67-79h53l-66 74L201 0h-54" id="aa"/><path fill="#b2b2b2" d="M176-78C186 10 51 31 16-35c-5-9-9-19-11-32l52-8c4 21 12 37 35 38 23 0 32-16 32-40v-130H75v-41h101v170" id="ab"/><g id="a"><use transform="matrix(0.0728395061728395,0,0,0.0728395061728395,0,0)" xlink:href="#W"/><use transform="matrix(0.0728395061728395,0,0,0.0728395061728395,18.86543209876543,0)" xlink:href="#X"/><use transform="matrix(0.0728395061728395,0,0,0.0728395061728395,26.14938271604938,0)" xlink:href="#Y"/><use transform="matrix(0.0728395061728395,0,0,0.0728395061728395,40.717283950617286,0)" xlink:href="#Z"/><use transform="matrix(0.0728395061728395,0,0,0.0728395061728395,55.28518518518518,0)" xlink:href="#aa"/><use transform="matrix(0.0728395061728395,0,0,0.0728395061728395,69.85308641975308,0)" xlink:href="#ab"/><use transform="matrix(0.0728395061728395,0,0,0.0728395061728395,84.42098765432098,0)" xlink:href="#Y"/><use transform="matrix(0.0728395061728395,0,0,0.0728395061728395,98.9888888888889,0)" xlink:href="#Z"/><use transform="matrix(0.0728395061728395,0,0,0.0728395061728395,113.55679012345678,0)" xlink:href="#aa"/></g><path fill="#b2b2b2" d="M24 0v-248h195v40H76v63h132v40H76v65h150V0H24" id="ac"/><path fill="#b2b2b2" d="M144 0l-44-69L55 0H2l70-98-66-92h53l41 62 40-62h54l-67 91 71 99h-54" id="ad"/><path fill="#b2b2b2" d="M115-3C79 11 28 4 28-45v-112H4v-33h27l15-45h31v45h36v33H77v99c-1 23 16 31 38 25v30" id="ae"/><path fill="#b2b2b2" d="M185-48c-13 30-37 53-82 52C43 2 14-33 14-96s30-98 90-98c62 0 83 45 84 108H66c0 31 8 55 39 56 18 0 30-7 34-22zm-45-69c5-46-57-63-70-21-2 6-4 13-4 21h74" id="af"/><path fill="#b2b2b2" d="M135-194c87-1 58 113 63 194h-50c-7-57 23-157-34-157-59 0-34 97-39 157H25l-1-190h47c2 12-1 28 3 38 12-26 28-41 61-42" id="ag"/><path fill="#b2b2b2" d="M88-194c31-1 46 15 58 34l-1-101h50l1 261h-48c-2-10 0-23-3-31C134-8 116 4 84 4 32 4 16-41 15-95c0-56 19-97 73-99zm17 164c33 0 40-30 41-66 1-37-9-64-41-64s-38 30-39 65c0 43 13 65 39 65" id="ah"/><g id="b"><use transform="matrix(0.0728395061728395,0,0,0.0728395061728395,0,0)" xlink:href="#ac"/><use transform="matrix(0.0728395061728395,0,0,0.0728395061728395,17.48148148148148,0)" xlink:href="#ad"/><use transform="matrix(0.0728395061728395,0,0,0.0728395061728395,32.04938271604938,0)" xlink:href="#ae"/><use transform="matrix(0.0728395061728395,0,0,0.0728395061728395,40.717283950617286,0)" xlink:href="#af"/><use transform="matrix(0.0728395061728395,0,0,0.0728395061728395,55.28518518518518,0)" xlink:href="#ag"/><use transform="matrix(0.0728395061728395,0,0,0.0728395061728395,71.23703703703703,0)" xlink:href="#ah"/><use transform="matrix(0.0728395061728395,0,0,0.0728395061728395,87.18888888888888,0)" xlink:href="#af"/><use transform="matrix(0.0728395061728395,0,0,0.0728395061728395,101.75679012345678,0)" xlink:href="#ah"/></g><path fill="#b2b2b2" d="M14-72v-43h91v43H14" id="ai"/><use transform="matrix(0.0728395061728395,0,0,0.0728395061728395,0,0)" xlink:href="#ai" id="c"/><path fill="#b2b2b2" d="M230 0l2-204L168 0h-37L68-204 70 0H24v-248h70l56 185 57-185h69V0h-46" id="aj"/><path fill="#b2b2b2" d="M25-224v-37h50v37H25zM25 0v-190h50V0H25" id="ak"/><g id="d"><use transform="matrix(0.0728395061728395,0,0,0.0728395061728395,0,0)" xlink:href="#aj"/><use transform="matrix(0.0728395061728395,0,0,0.0728395061728395,21.77901234567901,0)" xlink:href="#Y"/><use transform="matrix(0.0728395061728395,0,0,0.0728395061728395,36.34691358024691,0)" xlink:href="#ak"/><use transform="matrix(0.0728395061728395,0,0,0.0728395061728395,43.63086419753086,0)" xlink:href="#ag"/></g><path fill="#b2b2b2" d="M24-248c93 1 206-16 204 79-1 75-69 88-152 82V0H24v-248zm52 121c47 0 100 7 100-41 0-47-54-39-100-39v80" id="al"/><path fill="#b2b2b2" d="M195-6C206 82 75 100 31 46c-4-6-6-13-8-21l49-6c3 16 16 24 34 25 40 0 42-37 40-79-11 22-30 35-61 35-53 0-70-43-70-97 0-56 18-96 73-97 30 0 46 14 59 34l2-30h47zm-90-29c32 0 41-27 41-63 0-35-9-62-40-62-32 0-39 29-40 63 0 36 9 62 39 62" id="am"/><g id="e"><use transform="matrix(0.0728395061728395,0,0,0.0728395061728395,0,0)" xlink:href="#al"/><use transform="matrix(0.0728395061728395,0,0,0.0728395061728395,17.48148148148148,0)" xlink:href="#Y"/><use transform="matrix(0.0728395061728395,0,0,0.0728395061728395,32.04938271604938,0)" xlink:href="#am"/><use transform="matrix(0.0728395061728395,0,0,0.0728395061728395,48.00123456790123,0)" xlink:href="#af"/></g><path fill="#b2b2b2" d="M160-131c35 5 61 23 61 61C221 17 115-2 30 0v-248c76 3 177-17 177 60 0 33-19 50-47 57zm-97-11c50-1 110 9 110-42 0-47-63-36-110-37v79zm0 115c55-2 124 14 124-45 0-56-70-42-124-44v89" id="an"/><path fill="#b2b2b2" d="M141-36C126-15 110 5 73 4 37 3 15-17 15-53c-1-64 63-63 125-63 3-35-9-54-41-54-24 1-41 7-42 31l-33-3c5-37 33-52 76-52 45 0 72 20 72 64v82c-1 20 7 32 28 27v20c-31 9-61-2-59-35zM48-53c0 20 12 33 32 33 41-3 63-29 60-74-43 2-92-5-92 41" id="ao"/><path fill="#b2b2b2" d="M114-163C36-179 61-72 57 0H25l-1-190h30c1 12-1 29 2 39 6-27 23-49 58-41v29" id="ap"/><path fill="#b2b2b2" d="M59-47c-2 24 18 29 38 22v24C64 9 27 4 27-40v-127H5v-23h24l9-43h21v43h35v23H59v120" id="aq"/><path fill="#b2b2b2" d="M24 0v-95L3-83v-28l21-12v-138h32v120l22-13v28l-22 12V0H24" id="ar"/><path fill="#b2b2b2" d="M100-194c62-1 85 37 85 99 1 63-27 99-86 99S16-35 15-95c0-66 28-99 85-99zM99-20c44 1 53-31 53-75 0-43-8-75-51-75s-53 32-53 75 10 74 51 75" id="as"/><path fill="#b2b2b2" d="M210-169c-67 3-38 105-44 169h-31v-121c0-29-5-50-35-48C34-165 62-65 56 0H25l-1-190h30c1 10-1 24 2 32 10-44 99-50 107 0 11-21 27-35 58-36 85-2 47 119 55 194h-31v-121c0-29-5-49-35-48" id="at"/><path fill="#b2b2b2" d="M24-231v-30h32v30H24zM24 0v-190h32V0H24" id="au"/><path fill="#b2b2b2" d="M100-194c63 0 86 42 84 106H49c0 40 14 67 53 68 26 1 43-12 49-29l28 8c-11 28-37 45-77 45C44 4 14-33 15-96c1-61 26-98 85-98zm52 81c6-60-76-77-97-28-3 7-6 17-6 28h103" id="av"/><path fill="#b2b2b2" d="M24-231v-30h32v30H24zM-9 49c24 4 33-6 33-30v-209h32V24c2 40-23 58-65 49V49" id="aw"/><g id="f"><use transform="matrix(0.04248971193415638,0,0,0.04248971193415638,0,0)" xlink:href="#an"/><use transform="matrix(0.04248971193415638,0,0,0.04248971193415638,10.19753086419753,0)" xlink:href="#ao"/><use transform="matrix(0.04248971193415638,0,0,0.04248971193415638,18.695473251028805,0)" xlink:href="#ap"/><use transform="matrix(0.04248971193415638,0,0,0.04248971193415638,23.751748971193415,0)" xlink:href="#aq"/><use transform="matrix(0.04248971193415638,0,0,0.04248971193415638,28.000720164609053,0)" xlink:href="#ar"/><use transform="matrix(0.04248971193415638,0,0,0.04248971193415638,31.357407407407408,0)" xlink:href="#as"/><use transform="matrix(0.04248971193415638,0,0,0.04248971193415638,39.855349794238684,0)" xlink:href="#at"/><use transform="matrix(0.04248971193415638,0,0,0.04248971193415638,52.55977366255145,0)" xlink:href="#au"/><use transform="matrix(0.04248971193415638,0,0,0.04248971193415638,55.916460905349794,0)" xlink:href="#av"/><use transform="matrix(0.04248971193415638,0,0,0.04248971193415638,64.41440329218106,0)" xlink:href="#aw"/></g><path fill="#b2b2b2" d="M240 0l2-218c-23 76-54 145-80 218h-23L58-218 59 0H30v-248h44l77 211c21-75 51-140 76-211h43V0h-30" id="ax"/><path fill="#b2b2b2" d="M96-169c-40 0-48 33-48 73s9 75 48 75c24 0 41-14 43-38l32 2c-6 37-31 61-74 61-59 0-76-41-82-99-10-93 101-131 147-64 4 7 5 14 7 22l-32 3c-4-21-16-35-41-35" id="ay"/><path fill="#b2b2b2" d="M179-190L93 31C79 59 56 82 12 73V49c39 6 53-20 64-50L1-190h34L92-34l54-156h33" id="az"/><path fill="#b2b2b2" d="M135-143c-3-34-86-38-87 0 15 53 115 12 119 90S17 21 10-45l28-5c4 36 97 45 98 0-10-56-113-15-118-90-4-57 82-63 122-42 12 7 21 19 24 35" id="aA"/><path fill="#b2b2b2" d="M143 0L79-87 56-68V0H24v-261h32v163l83-92h37l-77 82L181 0h-38" id="aB"/><g id="g"><use transform="matrix(0.04248971193415638,0,0,0.04248971193415638,0,0)" xlink:href="#ax"/><use transform="matrix(0.04248971193415638,0,0,0.04248971193415638,12.704423868312757,0)" xlink:href="#ao"/><use transform="matrix(0.04248971193415638,0,0,0.04248971193415638,21.20236625514403,0)" xlink:href="#ap"/><use transform="matrix(0.04248971193415638,0,0,0.04248971193415638,26.25864197530864,0)" xlink:href="#ay"/><use transform="matrix(0.04248971193415638,0,0,0.04248971193415638,33.90679012345679,0)" xlink:href="#az"/><use transform="matrix(0.04248971193415638,0,0,0.04248971193415638,41.55493827160493,0)" xlink:href="#aA"/><use transform="matrix(0.04248971193415638,0,0,0.04248971193415638,49.20308641975308,0)" xlink:href="#au"/><use transform="matrix(0.04248971193415638,0,0,0.04248971193415638,52.55977366255143,0)" xlink:href="#ao"/><use transform="matrix(0.04248971193415638,0,0,0.04248971193415638,61.057716049382705,0)" xlink:href="#aB"/></g><path fill="#b2b2b2" d="M32 76v-337h29V76H32" id="aC"/><use transform="matrix(0.04248971193415638,0,0,0.04248971193415638,0,0)" xlink:href="#aC" id="h"/><path fill="#b2b2b2" d="M185-189c-5-48-123-54-124 2 14 75 158 14 163 119 3 78-121 87-175 55-17-10-28-26-33-46l33-7c5 56 141 63 141-1 0-78-155-14-162-118-5-82 145-84 179-34 5 7 8 16 11 25" id="aD"/><path fill="#b2b2b2" d="M115-194c55 1 70 41 70 98S169 2 115 4C84 4 66-9 55-30l1 105H24l-1-265h31l2 30c10-21 28-34 59-34zm-8 174c40 0 45-34 45-75s-6-73-45-74c-42 0-51 32-51 76 0 43 10 73 51 73" id="aE"/><path fill="#b2b2b2" d="M115-194c53 0 69 39 70 98 0 66-23 100-70 100C84 3 66-7 56-30L54 0H23l1-261h32v101c10-23 28-34 59-34zm-8 174c40 0 45-34 45-75 0-40-5-75-45-74-42 0-51 32-51 76 0 43 10 73 51 73" id="aF"/><g id="i"><use transform="matrix(0.04248971193415638,0,0,0.04248971193415638,0,0)" xlink:href="#aD"/><use transform="matrix(0.04248971193415638,0,0,0.04248971193415638,10.19753086419753,0)" xlink:href="#av"/><use transform="matrix(0.04248971193415638,0,0,0.04248971193415638,18.695473251028805,0)" xlink:href="#aE"/><use transform="matrix(0.04248971193415638,0,0,0.04248971193415638,27.193415637860078,0)" xlink:href="#aq"/><use transform="matrix(0.04248971193415638,0,0,0.04248971193415638,31.442386831275712,0)" xlink:href="#av"/><use transform="matrix(0.04248971193415638,0,0,0.04248971193415638,39.94032921810699,0)" xlink:href="#at"/><use transform="matrix(0.04248971193415638,0,0,0.04248971193415638,52.64475308641975,0)" xlink:href="#aF"/><use transform="matrix(0.04248971193415638,0,0,0.04248971193415638,61.142695473251024,0)" xlink:href="#av"/><use transform="matrix(0.04248971193415638,0,0,0.04248971193415638,69.6406378600823,0)" xlink:href="#ap"/></g><path fill="#b2b2b2" d="M101-251c82-7 93 87 43 132L82-64C71-53 59-42 53-27h129V0H18c2-99 128-94 128-182 0-28-16-43-45-43s-46 15-49 41l-32-3c6-41 34-60 81-64" id="aG"/><path fill="#b2b2b2" d="M110-160c48 1 74 30 74 79 0 53-28 85-80 85-65 0-83-55-86-122-5-90 50-162 133-122 14 7 22 21 27 39l-31 6c-5-40-67-38-82-6-9 19-15 44-15 74 11-20 30-34 60-33zm-7 138c34 0 49-23 49-58s-16-56-50-56c-29 0-50 16-49 49 1 36 15 65 50 65" id="aH"/><path fill="#b2b2b2" d="M68-38c1 34 0 65-14 84H32c9-13 17-26 17-46H33v-38h35" id="aI"/><g id="j"><use transform="matrix(0.04248971193415638,0,0,0.04248971193415638,0,0)" xlink:href="#aG"/><use transform="matrix(0.04248971193415638,0,0,0.04248971193415638,8.497942386831275,0)" xlink:href="#aH"/><use transform="matrix(0.04248971193415638,0,0,0.04248971193415638,16.99588477366255,0)" xlink:href="#aI"/></g><path fill="#b2b2b2" d="M101-251c68 0 85 55 85 127S166 4 100 4C33 4 14-52 14-124c0-73 17-127 87-127zm-1 229c47 0 54-49 54-102s-4-102-53-102c-51 0-55 48-55 102 0 53 5 102 54 102" id="aJ"/><path fill="#b2b2b2" d="M27 0v-27h64v-190l-56 39v-29l58-41h29v221h61V0H27" id="aK"/><path fill="#b2b2b2" d="M99-251c64 0 84 50 84 122C183-37 130 33 47-8c-14-7-20-23-25-40l30-5c6 39 69 39 84 7 9-19 16-44 16-74-10 22-31 35-62 35-49 0-73-33-73-83 0-54 28-83 82-83zm-1 141c31-1 51-18 51-49 0-36-14-67-51-67-34 0-49 23-49 58 0 34 15 58 49 58" id="aL"/><g id="k"><use transform="matrix(0.04248971193415638,0,0,0.04248971193415638,0,0)" xlink:href="#aG"/><use transform="matrix(0.04248971193415638,0,0,0.04248971193415638,8.497942386831275,0)" xlink:href="#aJ"/><use transform="matrix(0.04248971193415638,0,0,0.04248971193415638,16.99588477366255,0)" xlink:href="#aK"/><use transform="matrix(0.04248971193415638,0,0,0.04248971193415638,25.493827160493822,0)" xlink:href="#aL"/></g><path d="M160-131c35 5 61 23 61 61C221 17 115-2 30 0v-248c76 3 177-17 177 60 0 33-19 50-47 57zm-97-11c50-1 110 9 110-42 0-47-63-36-110-37v79zm0 115c55-2 124 14 124-45 0-56-70-42-124-44v89" id="aM"/><path d="M24 0v-261h32V0H24" id="aN"/><path d="M141-36C126-15 110 5 73 4 37 3 15-17 15-53c-1-64 63-63 125-63 3-35-9-54-41-54-24 1-41 7-42 31l-33-3c5-37 33-52 76-52 45 0 72 20 72 64v82c-1 20 7 32 28 27v20c-31 9-61-2-59-35zM48-53c0 20 12 33 32 33 41-3 63-29 60-74-43 2-92-5-92 41" id="aO"/><path d="M96-169c-40 0-48 33-48 73s9 75 48 75c24 0 41-14 43-38l32 2c-6 37-31 61-74 61-59 0-76-41-82-99-10-93 101-131 147-64 4 7 5 14 7 22l-32 3c-4-21-16-35-41-35" id="aP"/><path d="M143 0L79-87 56-68V0H24v-261h32v163l83-92h37l-77 82L181 0h-38" id="aQ"/><path d="M153-248C145-148 188 4 80 4 36 3 13-21 6-62l32-5c4 25 16 42 43 43 27 0 39-20 39-49v-147H72v-28h81" id="aR"/><g id="l"><use transform="matrix(0.05,0,0,0.05,0,0)" xlink:href="#aM"/><use transform="matrix(0.05,0,0,0.05,12,0)" xlink:href="#aN"/><use transform="matrix(0.05,0,0,0.05,15.949999999999998,0)" xlink:href="#aO"/><use transform="matrix(0.05,0,0,0.05,25.950000000000003,0)" xlink:href="#aP"/><use transform="matrix(0.05,0,0,0.05,34.95,0)" xlink:href="#aQ"/><use transform="matrix(0.05,0,0,0.05,43.95,0)" xlink:href="#aR"/><use transform="matrix(0.05,0,0,0.05,52.95,0)" xlink:href="#aO"/><use transform="matrix(0.05,0,0,0.05,62.95,0)" xlink:href="#aP"/><use transform="matrix(0.05,0,0,0.05,71.95,0)" xlink:href="#aQ"/></g><path d="M30 0v-248h187v28H63v79h144v27H63v87h162V0H30" id="aS"/><path d="M141 0L90-78 38 0H4l68-98-65-92h35l48 74 47-74h35l-64 92 68 98h-35" id="aT"/><path d="M59-47c-2 24 18 29 38 22v24C64 9 27 4 27-40v-127H5v-23h24l9-43h21v43h35v23H59v120" id="aU"/><path d="M100-194c63 0 86 42 84 106H49c0 40 14 67 53 68 26 1 43-12 49-29l28 8c-11 28-37 45-77 45C44 4 14-33 15-96c1-61 26-98 85-98zm52 81c6-60-76-77-97-28-3 7-6 17-6 28h103" id="aV"/><path d="M117-194c89-4 53 116 60 194h-32v-121c0-31-8-49-39-48C34-167 62-67 57 0H25l-1-190h30c1 10-1 24 2 32 11-22 29-35 61-36" id="aW"/><path d="M85-194c31 0 48 13 60 33l-1-100h32l1 261h-30c-2-10 0-23-3-31C134-8 116 4 85 4 32 4 16-35 15-94c0-66 23-100 70-100zm9 24c-40 0-46 34-46 75 0 40 6 74 45 74 42 0 51-32 51-76 0-42-9-74-50-73" id="aX"/><g id="m"><use transform="matrix(0.05,0,0,0.05,0,0)" xlink:href="#aS"/><use transform="matrix(0.05,0,0,0.05,12,0)" xlink:href="#aT"/><use transform="matrix(0.05,0,0,0.05,21,0)" xlink:href="#aU"/><use transform="matrix(0.05,0,0,0.05,26,0)" xlink:href="#aV"/><use transform="matrix(0.05,0,0,0.05,36,0)" xlink:href="#aW"/><use transform="matrix(0.05,0,0,0.05,46,0)" xlink:href="#aX"/><use transform="matrix(0.05,0,0,0.05,56,0)" xlink:href="#aV"/><use transform="matrix(0.05,0,0,0.05,66,0)" xlink:href="#aX"/></g><path d="M106-169C34-169 62-67 57 0H25v-261h32l-1 103c12-21 28-36 61-36 89 0 53 116 60 194h-32v-121c2-32-8-49-39-48" id="aY"/><path d="M115-194c55 1 70 41 70 98S169 2 115 4C84 4 66-9 55-30l1 105H24l-1-265h31l2 30c10-21 28-34 59-34zm-8 174c40 0 45-34 45-75s-6-73-45-74c-42 0-51 32-51 76 0 43 10 73 51 73" id="aZ"/><path d="M33-154v-36h34v36H33zM33 0v-36h34V0H33" id="ba"/><path d="M0 4l72-265h28L28 4H0" id="bb"/><path d="M115-194c53 0 69 39 70 98 0 66-23 100-70 100C84 3 66-7 56-30L54 0H23l1-261h32v101c10-23 28-34 59-34zm-8 174c40 0 45-34 45-75 0-40-5-75-45-74-42 0-51 32-51 76 0 43 10 73 51 73" id="bc"/><path d="M24-231v-30h32v30H24zM-9 49c24 4 33-6 33-30v-209h32V24c2 40-23 58-65 49V49" id="bd"/><path d="M33 0v-38h34V0H33" id="be"/><path d="M24-231v-30h32v30H24zM24 0v-190h32V0H24" id="bf"/><path d="M100-194c62-1 85 37 85 99 1 63-27 99-86 99S16-35 15-95c0-66 28-99 85-99zM99-20c44 1 53-31 53-75 0-43-8-75-51-75s-53 32-53 75 10 74 51 75" id="bg"/><g id="n"><use transform="matrix(0.05,0,0,0.05,0,0)" xlink:href="#aY"/><use transform="matrix(0.05,0,0,0.05,10,0)" xlink:href="#aU"/><use transform="matrix(0.05,0,0,0.05,15,0)" xlink:href="#aU"/><use transform="matrix(0.05,0,0,0.05,20,0)" xlink:href="#aZ"/><use transform="matrix(0.05,0,0,0.05,30,0)" xlink:href="#ba"/><use transform="matrix(0.05,0,0,0.05,35,0)" xlink:href="#bb"/><use transform="matrix(0.05,0,0,0.05,40,0)" xlink:href="#bb"/><use transform="matrix(0.05,0,0,0.05,45,0)" xlink:href="#bc"/><use transform="matrix(0.05,0,0,0.05,55,0)" xlink:href="#aN"/><use transform="matrix(0.05,0,0,0.05,58.95,0)" xlink:href="#aO"/><use transform="matrix(0.05,0,0,0.05,68.95,0)" xlink:href="#aP"/><use transform="matrix(0.05,0,0,0.05,77.95,0)" xlink:href="#aQ"/><use transform="matrix(0.05,0,0,0.05,86.95,0)" xlink:href="#bd"/><use transform="matrix(0.05,0,0,0.05,90.9,0)" xlink:href="#aO"/><use transform="matrix(0.05,0,0,0.05,100.9,0)" xlink:href="#aP"/><use transform="matrix(0.05,0,0,0.05,109.9,0)" xlink:href="#aQ"/><use transform="matrix(0.05,0,0,0.05,118.9,0)" xlink:href="#aT"/><use transform="matrix(0.05,0,0,0.05,127.9,0)" xlink:href="#be"/><use transform="matrix(0.05,0,0,0.05,132.9,0)" xlink:href="#bf"/><use transform="matrix(0.05,0,0,0.05,136.85,0)" xlink:href="#bg"/></g><path d="M127-220V0H93v-220H8v-28h204v28h-85" id="bh"/><g id="o"><use transform="matrix(0.05,0,0,0.05,0,0)" xlink:href="#aM"/><use transform="matrix(0.05,0,0,0.05,12,0)" xlink:href="#aS"/><use transform="matrix(0.05,0,0,0.05,24,0)" xlink:href="#bh"/></g><path d="M205 0l-28-72H64L36 0H1l101-248h38L239 0h-34zm-38-99l-47-123c-12 45-31 82-46 123h93" id="bi"/><path d="M240 0l2-218c-23 76-54 145-80 218h-23L58-218 59 0H30v-248h44l77 211c21-75 51-140 76-211h43V0h-30" id="bj"/><path d="M140-251c81 0 123 46 123 126C263-46 219 4 140 4 59 4 17-45 17-125s42-126 123-126zm0 227c63 0 89-41 89-101s-29-99-89-99c-61 0-89 39-89 99S79-25 140-24" id="bk"/><path d="M232-93c-1 65-40 97-104 97C67 4 28-28 28-90v-158h33c8 89-33 224 67 224 102 0 64-133 71-224h33v155" id="bl"/><path d="M190 0L58-211 59 0H30v-248h39L202-35l-2-213h31V0h-41" id="bm"/><g id="p"><use transform="matrix(0.05,0,0,0.05,0,0)" xlink:href="#bi"/><use transform="matrix(0.05,0,0,0.05,12,0)" xlink:href="#bj"/><use transform="matrix(0.05,0,0,0.05,26.950000000000003,0)" xlink:href="#bk"/><use transform="matrix(0.05,0,0,0.05,40.95,0)" xlink:href="#bl"/><use transform="matrix(0.05,0,0,0.05,53.900000000000006,0)" xlink:href="#bm"/><use transform="matrix(0.05,0,0,0.05,66.85000000000001,0)" xlink:href="#bh"/></g><path d="M194 0L95-120 63-95V0H30v-248h33v124l119-124h40L117-140 236 0h-42" id="bn"/><g id="q"><use transform="matrix(0.05,0,0,0.05,0,0)" xlink:href="#bk"/><use transform="matrix(0.05,0,0,0.05,14,0)" xlink:href="#bn"/></g><path d="M84 4C-5 8 30-112 23-190h32v120c0 31 7 50 39 49 72-2 45-101 50-169h31l1 190h-30c-1-10 1-25-2-33-11 22-28 36-60 37" id="bo"/><g id="r"><use transform="matrix(0.05,0,0,0.05,0,0)" xlink:href="#aM"/><use transform="matrix(0.05,0,0,0.05,12,0)" xlink:href="#bo"/><use transform="matrix(0.05,0,0,0.05,22,0)" xlink:href="#aU"/><use transform="matrix(0.05,0,0,0.05,27,0)" xlink:href="#aU"/><use transform="matrix(0.05,0,0,0.05,32,0)" xlink:href="#bg"/><use transform="matrix(0.05,0,0,0.05,42,0)" xlink:href="#aW"/></g><path d="M197 0v-115H63V0H30v-248h33v105h134v-105h34V0h-34" id="bp"/><path d="M33 0v-248h34V0H33" id="bq"/><g id="s"><use transform="matrix(0.05,0,0,0.05,0,0)" xlink:href="#bp"/><use transform="matrix(0.05,0,0,0.05,12.950000000000001,0)" xlink:href="#bq"/><use transform="matrix(0.05,0,0,0.05,17.950000000000003,0)" xlink:href="#bh"/></g><path d="M30 0v-248h33v221h125V0H30" id="br"/><path d="M177-190C167-65 218 103 67 71c-23-6-38-20-44-43l32-5c15 47 100 32 89-28v-30C133-14 115 1 83 1 29 1 15-40 15-95c0-56 16-97 71-98 29-1 48 16 59 35 1-10 0-23 2-32h30zM94-22c36 0 50-32 50-73 0-42-14-75-50-75-39 0-46 34-46 75s6 73 46 73" id="bs"/><g id="t"><use transform="matrix(0.05,0,0,0.05,0,0)" xlink:href="#br"/><use transform="matrix(0.05,0,0,0.05,10,0)" xlink:href="#bg"/><use transform="matrix(0.05,0,0,0.05,20,0)" xlink:href="#bs"/></g><g id="u"><use transform="matrix(0.05,0,0,0.05,0,0)" xlink:href="#bq"/><use transform="matrix(0.05,0,0,0.05,5,0)" xlink:href="#aW"/></g><path d="M185-189c-5-48-123-54-124 2 14 75 158 14 163 119 3 78-121 87-175 55-17-10-28-26-33-46l33-7c5 56 141 63 141-1 0-78-155-14-162-118-5-82 145-84 179-34 5 7 8 16 11 25" id="bt"/><path d="M30-248c118-7 216 8 213 122C240-48 200 0 122 0H30v-248zM63-27c89 8 146-16 146-99s-60-101-146-95v194" id="bu"/><g id="v"><use transform="matrix(0.05,0,0,0.05,0,0)" xlink:href="#bt"/><use transform="matrix(0.05,0,0,0.05,12,0)" xlink:href="#bh"/><use transform="matrix(0.05,0,0,0.05,21.6,0)" xlink:href="#bi"/><use transform="matrix(0.05,0,0,0.05,33.6,0)" xlink:href="#bm"/><use transform="matrix(0.05,0,0,0.05,46.550000000000004,0)" xlink:href="#bu"/></g><path d="M114-163C36-179 61-72 57 0H25l-1-190h30c1 12-1 29 2 39 6-27 23-49 58-41v29" id="bv"/><path d="M47-170H22l-4-78h33" id="bw"/><path d="M135-143c-3-34-86-38-87 0 15 53 115 12 119 90S17 21 10-45l28-5c4 36 97 45 98 0-10-56-113-15-118-90-4-57 82-63 122-42 12 7 21 19 24 35" id="bx"/><g id="w"><use transform="matrix(0.05,0,0,0.05,0,0)" xlink:href="#bu"/><use transform="matrix(0.05,0,0,0.05,12.950000000000001,0)" xlink:href="#aV"/><use transform="matrix(0.05,0,0,0.05,22.950000000000003,0)" xlink:href="#aO"/><use transform="matrix(0.05,0,0,0.05,32.95,0)" xlink:href="#aN"/><use transform="matrix(0.05,0,0,0.05,36.900000000000006,0)" xlink:href="#aV"/><use transform="matrix(0.05,0,0,0.05,46.900000000000006,0)" xlink:href="#bv"/><use transform="matrix(0.05,0,0,0.05,52.85,0)" xlink:href="#bw"/><use transform="matrix(0.05,0,0,0.05,56.25,0)" xlink:href="#bx"/></g><path d="M212-179c-10-28-35-45-73-45-59 0-87 40-87 99 0 60 29 101 89 101 43 0 62-24 78-52l27 14C228-24 195 4 139 4 59 4 22-46 18-125c-6-104 99-153 187-111 19 9 31 26 39 46" id="by"/><g id="x"><use transform="matrix(0.05,0,0,0.05,0,0)" xlink:href="#by"/><use transform="matrix(0.05,0,0,0.05,12.950000000000001,0)" xlink:href="#aO"/><use transform="matrix(0.05,0,0,0.05,22.950000000000003,0)" xlink:href="#bv"/><use transform="matrix(0.05,0,0,0.05,28.900000000000002,0)" xlink:href="#aX"/><use transform="matrix(0.05,0,0,0.05,38.900000000000006,0)" xlink:href="#bx"/></g><path d="M137-103V0h-34v-103L8-248h37l75 118 75-118h37" id="bz"/><g id="y"><use transform="matrix(0.05,0,0,0.05,0,0)" xlink:href="#bz"/><use transform="matrix(0.05,0,0,0.05,10.35,0)" xlink:href="#bg"/><use transform="matrix(0.05,0,0,0.05,20.35,0)" xlink:href="#bo"/><use transform="matrix(0.05,0,0,0.05,30.35,0)" xlink:href="#bv"/></g><g id="z"><use transform="matrix(0.05,0,0,0.05,0,0)" xlink:href="#by"/><use transform="matrix(0.05,0,0,0.05,12.950000000000001,0)" xlink:href="#aO"/><use transform="matrix(0.05,0,0,0.05,22.950000000000003,0)" xlink:href="#bv"/><use transform="matrix(0.05,0,0,0.05,28.900000000000002,0)" xlink:href="#aX"/><use transform="matrix(0.05,0,0,0.05,38.900000000000006,0)" xlink:href="#bx"/></g><path fill="#b2b2b2" d="M135-150c-39-12-60 13-60 57V0H25l-1-190h47c2 13-1 29 3 40 6-28 27-53 61-41v41" id="bA"/><path fill="#b2b2b2" d="M110-194c64 0 96 36 96 99 0 64-35 99-97 99-61 0-95-36-95-99 0-62 34-99 96-99zm-1 164c35 0 45-28 45-65 0-40-10-65-43-65-34 0-45 26-45 65 0 36 10 65 43 65" id="bB"/><path fill="#b2b2b2" d="M121-226c-27-7-43 5-38 36h38v33H83V0H34v-157H6v-33h28c-9-59 32-81 87-68v32" id="bC"/><g id="A"><use transform="matrix(0.0728395061728395,0,0,0.0728395061728395,0,0)" xlink:href="#al"/><use transform="matrix(0.0728395061728395,0,0,0.0728395061728395,17.48148148148148,0)" xlink:href="#bA"/><use transform="matrix(0.0728395061728395,0,0,0.0728395061728395,27.679012345679013,0)" xlink:href="#bB"/><use transform="matrix(0.0728395061728395,0,0,0.0728395061728395,43.63086419753086,0)" xlink:href="#bC"/><use transform="matrix(0.0728395061728395,0,0,0.0728395061728395,52.29876543209876,0)" xlink:href="#ak"/><use transform="matrix(0.0728395061728395,0,0,0.0728395061728395,59.582716049382704,0)" xlink:href="#X"/><use transform="matrix(0.0728395061728395,0,0,0.0728395061728395,66.86666666666666,0)" xlink:href="#af"/></g><use transform="matrix(0.04248971193415638,0,0,0.04248971193415638,0,0)" xlink:href="#aC" id="B"/><g id="C"><use transform="matrix(0.05,0,0,0.05,0,0)" xlink:href="#aM"/><use transform="matrix(0.05,0,0,0.05,12,0)" xlink:href="#aN"/><use transform="matrix(0.05,0,0,0.05,15.949999999999998,0)" xlink:href="#aO"/><use transform="matrix(0.05,0,0,0.05,25.950000000000003,0)" xlink:href="#aP"/><use transform="matrix(0.05,0,0,0.05,34.95,0)" xlink:href="#aQ"/><use transform="matrix(0.05,0,0,0.05,43.95,0)" xlink:href="#aR"/><use transform="matrix(0.05,0,0,0.05,52.95,0)" xlink:href="#aO"/><use transform="matrix(0.05,0,0,0.05,62.95,0)" xlink:href="#aP"/><use transform="matrix(0.05,0,0,0.05,71.95,0)" xlink:href="#aQ"/></g><g id="D"><use transform="matrix(0.05,0,0,0.05,0,0)" xlink:href="#aS"/><use transform="matrix(0.05,0,0,0.05,12,0)" xlink:href="#aT"/><use transform="matrix(0.05,0,0,0.05,21,0)" xlink:href="#aU"/><use transform="matrix(0.05,0,0,0.05,26,0)" xlink:href="#aV"/><use transform="matrix(0.05,0,0,0.05,36,0)" xlink:href="#aW"/><use transform="matrix(0.05,0,0,0.05,46,0)" xlink:href="#aX"/><use transform="matrix(0.05,0,0,0.05,56,0)" xlink:href="#aV"/><use transform="matrix(0.05,0,0,0.05,66,0)" xlink:href="#aX"/></g><g id="E"><use transform="matrix(0.05,0,0,0.05,0,0)" xlink:href="#aY"/><use transform="matrix(0.05,0,0,0.05,10,0)" xlink:href="#aU"/><use transform="matrix(0.05,0,0,0.05,15,0)" xlink:href="#aU"/><use transform="matrix(0.05,0,0,0.05,20,0)" xlink:href="#aZ"/><use transform="matrix(0.05,0,0,0.05,30,0)" xlink:href="#ba"/><use transform="matrix(0.05,0,0,0.05,35,0)" xlink:href="#bb"/><use transform="matrix(0.05,0,0,0.05,40,0)" xlink:href="#bb"/><use transform="matrix(0.05,0,0,0.05,45,0)" xlink:href="#bc"/><use transform="matrix(0.05,0,0,0.05,55,0)" xlink:href="#aN"/><use transform="matrix(0.05,0,0,0.05,58.95,0)" xlink:href="#aO"/><use transform="matrix(0.05,0,0,0.05,68.95,0)" xlink:href="#aP"/><use transform="matrix(0.05,0,0,0.05,77.95,0)" xlink:href="#aQ"/><use transform="matrix(0.05,0,0,0.05,86.95,0)" xlink:href="#bd"/><use transform="matrix(0.05,0,0,0.05,90.9,0)" xlink:href="#aO"/><use transform="matrix(0.05,0,0,0.05,100.9,0)" xlink:href="#aP"/><use transform="matrix(0.05,0,0,0.05,109.9,0)" xlink:href="#aQ"/><use transform="matrix(0.05,0,0,0.05,118.9,0)" xlink:href="#aT"/><use transform="matrix(0.05,0,0,0.05,127.9,0)" xlink:href="#be"/><use transform="matrix(0.05,0,0,0.05,132.9,0)" xlink:href="#bf"/><use transform="matrix(0.05,0,0,0.05,136.85,0)" xlink:href="#bg"/></g><g id="F"><use transform="matrix(0.05,0,0,0.05,0,0)" xlink:href="#aZ"/><use transform="matrix(0.05,0,0,0.05,10,0)" xlink:href="#bg"/><use transform="matrix(0.05,0,0,0.05,20,0)" xlink:href="#bx"/><use transform="matrix(0.05,0,0,0.05,29,0)" xlink:href="#bf"/><use transform="matrix(0.05,0,0,0.05,32.95,0)" xlink:href="#aU"/><use transform="matrix(0.05,0,0,0.05,37.95,0)" xlink:href="#bf"/><use transform="matrix(0.05,0,0,0.05,41.900000000000006,0)" xlink:href="#bg"/><use transform="matrix(0.05,0,0,0.05,51.900000000000006,0)" xlink:href="#aW"/></g><path d="M233-177c-1 41-23 64-60 70L243 0h-38l-65-103H63V0H30v-248c88 3 205-21 203 71zM63-129c60-2 137 13 137-47 0-61-80-42-137-45v92" id="bD"/><g id="H"><use transform="matrix(0.05,0,0,0.05,0,0)" xlink:href="#aS"/><use transform="matrix(0.05,0,0,0.05,12,0)" xlink:href="#bm"/><use transform="matrix(0.05,0,0,0.05,24.950000000000003,0)" xlink:href="#bh"/><use transform="matrix(0.05,0,0,0.05,35.900000000000006,0)" xlink:href="#bD"/><use transform="matrix(0.05,0,0,0.05,48.50000000000001,0)" xlink:href="#bz"/></g><g id="I"><use transform="matrix(0.05,0,0,0.05,0,0)" xlink:href="#by"/><use transform="matrix(0.05,0,0,0.05,12.950000000000001,0)" xlink:href="#bv"/><use transform="matrix(0.05,0,0,0.05,18.900000000000002,0)" xlink:href="#aV"/><use transform="matrix(0.05,0,0,0.05,28.900000000000002,0)" xlink:href="#aX"/><use transform="matrix(0.05,0,0,0.05,38.900000000000006,0)" xlink:href="#bf"/><use transform="matrix(0.05,0,0,0.05,42.85000000000001,0)" xlink:href="#aU"/><use transform="matrix(0.05,0,0,0.05,47.85000000000001,0)" xlink:href="#bx"/></g><path d="M210-169c-67 3-38 105-44 169h-31v-121c0-29-5-50-35-48C34-165 62-65 56 0H25l-1-190h30c1 10-1 24 2 32 10-44 99-50 107 0 11-21 27-35 58-36 85-2 47 119 55 194h-31v-121c0-29-5-49-35-48" id="bE"/><g id="J"><use transform="matrix(0.05,0,0,0.05,0,0)" xlink:href="#aS"/><use transform="matrix(0.05,0,0,0.05,12,0)" xlink:href="#bE"/><use transform="matrix(0.05,0,0,0.05,26.950000000000003,0)" xlink:href="#aO"/><use transform="matrix(0.05,0,0,0.05,36.95,0)" xlink:href="#bf"/><use transform="matrix(0.05,0,0,0.05,40.900000000000006,0)" xlink:href="#aN"/></g><g id="K"><use transform="matrix(0.05,0,0,0.05,0,0)" xlink:href="#br"/><use transform="matrix(0.05,0,0,0.05,10,0)" xlink:href="#bg"/><use transform="matrix(0.05,0,0,0.05,20,0)" xlink:href="#bs"/></g><g id="L"><use transform="matrix(0.05,0,0,0.05,0,0)" xlink:href="#bq"/><use transform="matrix(0.05,0,0,0.05,5,0)" xlink:href="#aW"/></g><path d="M143 4C61 4 22-44 18-125c-5-107 100-154 193-111 17 8 29 25 37 43l-32 9c-13-25-37-40-76-40-61 0-88 39-88 99 0 61 29 100 91 101 35 0 62-11 79-27v-45h-74v-28h105v86C228-13 192 4 143 4" id="bF"/><g id="M"><use transform="matrix(0.05,0,0,0.05,0,0)" xlink:href="#br"/><use transform="matrix(0.05,0,0,0.05,10,0)" xlink:href="#bk"/><use transform="matrix(0.05,0,0,0.05,24,0)" xlink:href="#bF"/></g><g id="N"><use transform="matrix(0.05,0,0,0.05,0,0)" xlink:href="#bq"/><use transform="matrix(0.05,0,0,0.05,5,0)" xlink:href="#bm"/></g><path d="M30-248c87 1 191-15 191 75 0 78-77 80-158 76V0H30v-248zm33 125c57 0 124 11 124-50 0-59-68-47-124-48v98" id="bG"/><path d="M206 0h-36l-40-164L89 0H53L-1-190h32L70-26l43-164h34l41 164 42-164h31" id="bH"/><g id="O"><use transform="matrix(0.05,0,0,0.05,0,0)" xlink:href="#bG"/><use transform="matrix(0.05,0,0,0.05,12,0)" xlink:href="#aO"/><use transform="matrix(0.05,0,0,0.05,22,0)" xlink:href="#bx"/><use transform="matrix(0.05,0,0,0.05,31,0)" xlink:href="#bx"/><use transform="matrix(0.05,0,0,0.05,40,0)" xlink:href="#bH"/><use transform="matrix(0.05,0,0,0.05,52.95,0)" xlink:href="#bg"/><use transform="matrix(0.05,0,0,0.05,62.95,0)" xlink:href="#bv"/><use transform="matrix(0.05,0,0,0.05,68.9,0)" xlink:href="#aX"/></g><path d="M24 0v-248h52v208h133V0H24" id="bI"/><path d="M24 0v-248h195v40H76v63h132v40H76v65h150V0H24" id="bJ"/><path d="M199 0l-22-63H83L61 0H9l90-248h61L250 0h-51zm-33-102l-36-108c-10 38-24 72-36 108h72" id="bK"/><path d="M24-248c120-7 223 5 221 122C244-46 201 0 124 0H24v-248zM76-40c74 7 117-18 117-86 0-67-45-88-117-82v168" id="bL"/><path d="M240-174c0 40-23 61-54 70L253 0h-59l-57-94H76V0H24v-248c93 4 217-23 216 74zM76-134c48-2 112 12 112-38 0-48-66-32-112-35v73" id="bM"/><path d="M182-130c37 4 62 22 62 59C244 23 116-4 24 0v-248c84 5 203-23 205 63 0 31-19 50-47 55zM76-148c40-3 101 13 101-30 0-44-60-28-101-31v61zm0 110c48-3 116 14 116-37 0-48-69-32-116-35v72" id="bN"/><path d="M140-251c80 0 125 45 125 126S219 4 139 4C58 4 15-44 15-125s44-126 125-126zm-1 214c52 0 73-35 73-88 0-50-21-86-72-86-52 0-73 35-73 86s22 88 72 88" id="bO"/><g id="P"><use transform="matrix(0.07407407407407408,0,0,0.07407407407407408,0,0)" xlink:href="#bI"/><use transform="matrix(0.07407407407407408,0,0,0.07407407407407408,16.222222222222225,0)" xlink:href="#bJ"/><use transform="matrix(0.07407407407407408,0,0,0.07407407407407408,34,0)" xlink:href="#bK"/><use transform="matrix(0.07407407407407408,0,0,0.07407407407407408,53.18518518518519,0)" xlink:href="#bL"/><use transform="matrix(0.07407407407407408,0,0,0.07407407407407408,72.37037037037038,0)" xlink:href="#bJ"/><use transform="matrix(0.07407407407407408,0,0,0.07407407407407408,90.14814814814817,0)" xlink:href="#bM"/><use transform="matrix(0.07407407407407408,0,0,0.07407407407407408,109.33333333333334,0)" xlink:href="#bN"/><use transform="matrix(0.07407407407407408,0,0,0.07407407407407408,128.51851851851853,0)" xlink:href="#bO"/><use transform="matrix(0.07407407407407408,0,0,0.07407407407407408,149.25925925925927,0)" xlink:href="#bK"/><use transform="matrix(0.07407407407407408,0,0,0.07407407407407408,168.44444444444446,0)" xlink:href="#bM"/><use transform="matrix(0.07407407407407408,0,0,0.07407407407407408,187.62962962962965,0)" xlink:href="#bL"/></g><path d="M101-234c-31-9-42 10-38 44h38v23H63V0H32v-167H5v-23h27c-7-52 17-82 69-68v24" id="bP"/><g id="Q"><use transform="matrix(0.05,0,0,0.05,0,0)" xlink:href="#bG"/><use transform="matrix(0.05,0,0,0.05,12,0)" xlink:href="#bv"/><use transform="matrix(0.05,0,0,0.05,17.95,0)" xlink:href="#bg"/><use transform="matrix(0.05,0,0,0.05,27.950000000000003,0)" xlink:href="#bP"/><use transform="matrix(0.05,0,0,0.05,32.95,0)" xlink:href="#bf"/><use transform="matrix(0.05,0,0,0.05,36.900000000000006,0)" xlink:href="#aN"/><use transform="matrix(0.05,0,0,0.05,40.85000000000001,0)" xlink:href="#aV"/></g><path d="M175 0L67-191c6 58 2 128 3 191H24v-248h59L193-55c-6-58-2-129-3-193h46V0h-61" id="bQ"/><path d="M230 0l2-204L168 0h-37L68-204 70 0H24v-248h70l56 185 57-185h69V0h-46" id="bR"/><g id="R"><use transform="matrix(0.07407407407407408,0,0,0.07407407407407408,0,0)" xlink:href="#bQ"/><use transform="matrix(0.07407407407407408,0,0,0.07407407407407408,19.185185185185187,0)" xlink:href="#bK"/><use transform="matrix(0.07407407407407408,0,0,0.07407407407407408,38.370370370370374,0)" xlink:href="#bR"/><use transform="matrix(0.07407407407407408,0,0,0.07407407407407408,60.518518518518526,0)" xlink:href="#bJ"/></g><path d="M179-190L93 31C79 59 56 82 12 73V49c39 6 53-20 64-50L1-190h34L92-34l54-156h33" id="bS"/><g id="S"><use transform="matrix(0.05,0,0,0.05,0,0)" xlink:href="#bj"/><use transform="matrix(0.05,0,0,0.05,14.950000000000001,0)" xlink:href="#bS"/></g><g id="T"><use transform="matrix(0.05,0,0,0.05,0,0)" xlink:href="#bG"/><use transform="matrix(0.05,0,0,0.05,12,0)" xlink:href="#bv"/><use transform="matrix(0.05,0,0,0.05,17.95,0)" xlink:href="#bg"/><use transform="matrix(0.05,0,0,0.05,27.950000000000003,0)" xlink:href="#bP"/><use transform="matrix(0.05,0,0,0.05,32.95,0)" xlink:href="#bf"/><use transform="matrix(0.05,0,0,0.05,36.900000000000006,0)" xlink:href="#aN"/><use transform="matrix(0.05,0,0,0.05,40.85000000000001,0)" xlink:href="#aV"/><use transform="matrix(0.05,0,0,0.05,50.85000000000001,0)" xlink:href="#bx"/></g><g id="U"><use transform="matrix(0.05,0,0,0.05,0,0)" xlink:href="#bk"/><use transform="matrix(0.05,0,0,0.05,14,0)" xlink:href="#bo"/><use transform="matrix(0.05,0,0,0.05,24,0)" xlink:href="#aU"/></g><g id="V"><use transform="matrix(0.05,0,0,0.05,0,0)" xlink:href="#bu"/><use transform="matrix(0.05,0,0,0.05,12.950000000000001,0)" xlink:href="#aV"/><use transform="matrix(0.05,0,0,0.05,22.950000000000003,0)" xlink:href="#aN"/><use transform="matrix(0.05,0,0,0.05,26.900000000000002,0)" xlink:href="#aV"/><use transform="matrix(0.05,0,0,0.05,36.900000000000006,0)" xlink:href="#aU"/><use transform="matrix(0.05,0,0,0.05,41.900000000000006,0)" xlink:href="#aV"/></g></defs></g></svg>